<?xml version="1.0" standalone="no"?>
<!DOCTYPE svg PUBLIC "-//W3C//DTD SVG 20010904//EN"
 "http://www.w3.org/TR/2001/REC-SVG-20010904/DTD/svg10.dtd">
<svg version="1.0" xmlns="http://www.w3.org/2000/svg"
 width="1440.000000pt" height="1440.000000pt" viewBox="0 0 1440.000000 1440.000000"
 preserveAspectRatio="xMidYMid meet">
<metadata>
Created by potrace 1.14, written by Peter Selinger 2001-2017
</metadata>
<g transform="translate(0.000000,1440.000000) scale(0.100000,-0.100000)"
fill="#000000" stroke="none">
<path d="M4398 11835 c-1 -1 -48 -6 -103 -9 -55 -3 -111 -8 -125 -10 -25 -5
-101 -14 -170 -21 -19 -2 -44 -6 -55 -8 -11 -3 -54 -10 -95 -17 -41 -7 -113
-21 -160 -32 -47 -10 -94 -20 -105 -23 -11 -2 -30 -6 -42 -9 -13 -3 -33 -8
-44 -11 -12 -2 -47 -12 -78 -21 -31 -9 -60 -17 -66 -18 -5 -2 -37 -11 -70 -21
-33 -11 -63 -20 -67 -21 -5 -1 -11 -3 -15 -4 -5 -2 -12 -4 -18 -5 -5 -1 -17
-5 -25 -8 -8 -3 -62 -24 -120 -46 -58 -21 -118 -45 -135 -52 -16 -7 -32 -13
-35 -13 -17 -3 -166 -72 -171 -79 -3 -5 -9 -8 -13 -7 -11 3 -283 -137 -381
-196 -49 -30 -98 -57 -107 -60 -10 -4 -18 -10 -18 -14 0 -4 -8 -10 -17 -14
-21 -7 -50 -25 -77 -48 -11 -10 -32 -24 -48 -30 -15 -7 -28 -16 -28 -19 0 -4
-25 -22 -55 -40 -30 -18 -55 -37 -55 -41 0 -4 -6 -8 -14 -8 -8 0 -16 -3 -18
-8 -2 -4 -46 -41 -98 -82 -52 -41 -100 -79 -106 -85 -6 -5 -40 -35 -75 -65
-78 -66 -376 -364 -441 -440 -26 -30 -57 -66 -69 -80 -12 -14 -33 -41 -48 -60
-14 -19 -29 -37 -32 -40 -29 -25 -277 -383 -325 -470 -10 -19 -21 -37 -25 -40
-34 -32 -297 -565 -291 -592 1 -5 -3 -8 -8 -8 -5 0 -9 -3 -8 -7 2 -5 -14 -51
-34 -103 -37 -98 -49 -131 -49 -140 -1 -3 -5 -11 -11 -18 -6 -7 -8 -15 -5 -19
4 -3 3 -11 -2 -17 -7 -9 -58 -163 -67 -201 -1 -5 -14 -57 -29 -115 -14 -58
-28 -116 -31 -129 -3 -12 -11 -52 -20 -87 -8 -35 -14 -67 -13 -71 1 -4 0 -10
-1 -13 -3 -10 -10 -45 -16 -85 -3 -22 -9 -56 -13 -75 -4 -19 -7 -45 -6 -57 1
-13 -1 -23 -4 -23 -4 0 -7 -15 -7 -32 0 -18 -4 -56 -7 -85 -29 -227 -30 -753
-2 -963 2 -19 7 -60 10 -90 3 -30 8 -73 11 -95 3 -22 6 -48 7 -57 1 -10 5 -18
10 -18 4 0 5 -4 2 -10 -3 -5 -1 -36 5 -67 6 -32 13 -69 16 -83 2 -14 9 -45 14
-70 6 -25 13 -56 16 -70 8 -39 12 -55 14 -55 1 0 3 -9 5 -20 3 -23 17 -78 40
-155 9 -30 17 -62 20 -70 2 -8 8 -27 14 -42 6 -16 7 -28 4 -28 -4 0 -2 -5 5
-12 7 -7 12 -22 12 -34 0 -13 5 -26 10 -29 6 -4 8 -10 5 -15 -3 -5 -1 -11 5
-15 5 -3 10 -16 10 -29 0 -12 4 -26 8 -31 5 -6 17 -32 26 -60 20 -57 17 -49
87 -215 60 -142 229 -477 255 -506 6 -7 17 -26 24 -43 7 -17 16 -31 20 -31 4
0 12 -11 18 -25 13 -28 137 -218 155 -237 7 -7 29 -39 50 -70 21 -31 46 -66
56 -77 9 -11 26 -32 37 -46 10 -15 30 -40 44 -55 14 -16 32 -38 42 -50 94
-123 433 -464 568 -573 19 -15 51 -41 70 -57 37 -31 88 -71 134 -105 16 -11
47 -34 70 -51 42 -32 218 -151 248 -169 10 -5 55 -32 100 -59 46 -27 103 -61
128 -75 48 -28 258 -132 350 -174 92 -42 154 -69 165 -71 6 -2 19 -7 30 -11
69 -28 134 -51 235 -85 166 -54 210 -68 253 -75 20 -4 40 -11 42 -16 3 -4 12
-6 20 -2 8 3 15 0 15 -7 0 -6 4 -9 8 -6 5 3 24 1 43 -4 19 -5 48 -12 64 -15
17 -3 41 -8 55 -11 14 -3 33 -6 43 -7 9 -1 17 -4 17 -7 0 -3 8 -6 18 -7 22 -1
99 -12 132 -18 216 -44 404 -51 485 -20 126 48 217 150 259 289 14 46 16 177
3 221 -16 58 -50 135 -59 135 -5 0 -8 4 -8 10 0 12 -27 46 -59 74 -13 12 -34
31 -46 43 -30 29 -167 93 -208 97 -17 2 -39 6 -47 9 -8 4 -37 8 -65 11 -27 2
-50 5 -50 6 0 1 -22 5 -89 14 -21 3 -46 8 -55 10 -9 3 -33 7 -55 11 -21 3 -42
7 -46 10 -3 2 -22 7 -41 10 -34 6 -143 34 -207 54 -18 5 -36 10 -40 10 -17 2
-138 44 -148 53 -7 5 -16 8 -20 6 -5 -1 -19 3 -31 10 -13 7 -23 9 -23 5 0 -4
-5 -2 -12 5 -7 7 -18 12 -25 12 -7 0 -36 11 -65 24 -29 13 -78 34 -108 47
-112 47 -412 205 -418 221 -2 4 -8 8 -14 8 -12 0 -122 71 -126 82 -2 5 -8 8
-13 8 -7 0 -79 48 -124 82 -5 5 -28 22 -50 38 -139 104 -221 177 -381 335
-105 105 -239 252 -282 310 -39 52 -78 101 -84 103 -5 2 -8 10 -8 17 0 7 -4
15 -8 17 -5 2 -42 53 -83 114 -92 137 -98 146 -106 164 -4 8 -9 17 -12 20 -3
3 -16 25 -29 50 -44 85 -67 125 -75 131 -5 3 -8 8 -7 10 1 2 -21 51 -48 109
-43 92 -61 132 -67 150 -6 18 -32 82 -53 130 -28 63 -117 348 -128 410 -4 19
-11 40 -15 46 -5 6 -7 13 -4 16 3 2 0 20 -5 39 -6 19 -13 50 -16 69 -4 19 -7
40 -9 45 -20 91 -41 243 -50 365 -2 30 -4 55 -5 55 -5 0 -15 389 -11 405 1 3
4 43 6 90 4 75 7 115 20 235 6 63 18 136 49 305 2 14 10 48 16 75 7 28 13 55
14 60 1 6 5 16 9 23 5 6 6 12 3 12 -2 0 2 24 10 53 8 28 16 59 18 67 2 8 14
47 27 85 13 39 24 72 24 75 4 13 20 56 77 200 67 167 199 438 237 484 7 9 11
16 8 16 -6 0 73 125 93 148 6 6 8 12 5 12 -5 0 45 71 75 107 5 7 10 15 10 17
0 3 6 14 14 23 173 216 222 276 260 316 25 27 46 54 46 60 0 5 2 8 5 6 2 -3
51 40 107 96 106 103 162 154 238 215 24 19 52 43 62 53 10 9 18 14 18 10 0
-5 6 -1 13 7 14 18 123 100 132 100 4 0 12 6 19 13 8 6 22 18 32 24 11 7 35
23 55 37 20 13 58 36 85 52 27 15 51 31 54 34 12 13 332 177 395 202 22 9 58
24 80 34 22 10 42 18 45 19 3 1 13 5 22 9 9 4 23 9 31 10 8 1 22 8 31 15 8 7
20 10 26 6 5 -3 10 -1 10 4 0 6 3 10 8 9 4 -1 59 15 122 35 109 35 245 73 300
83 14 3 41 9 60 14 45 12 214 41 265 46 22 2 51 6 65 9 23 5 97 11 235 20 82
6 354 6 440 0 112 -8 164 -13 295 -29 61 -8 278 -48 330 -62 8 -2 35 -8 60
-14 65 -16 271 -77 305 -91 17 -7 36 -13 43 -15 8 -1 21 -6 30 -10 9 -4 22 -8
28 -9 6 -2 27 -10 45 -18 19 -8 70 -30 114 -48 183 -77 597 -304 657 -362 7
-7 26 -21 43 -31 16 -11 34 -23 40 -27 5 -5 57 -46 115 -91 58 -45 123 -98
145 -117 69 -61 328 -324 370 -375 22 -28 47 -57 55 -65 56 -59 300 -407 300
-429 0 -6 4 -12 8 -14 30 -12 284 -533 306 -628 1 -4 21 -59 44 -120 3 -8 6
-17 7 -20 1 -6 40 -133 61 -202 8 -26 14 -56 14 -67 0 -22 -31 -81 -42 -81 -5
0 -8 -4 -8 -9 0 -5 -16 -32 -35 -61 -19 -29 -38 -63 -41 -76 -3 -13 -10 -24
-15 -24 -5 0 -8 -3 -7 -7 0 -5 -7 -26 -17 -48 -21 -49 -38 -88 -40 -95 0 -3
-8 -27 -18 -55 -9 -27 -18 -61 -21 -75 -2 -14 -9 -43 -15 -65 -13 -49 -21
-108 -26 -193 -2 -34 -7 -67 -10 -72 -3 -6 -3 -10 2 -10 4 0 8 -35 8 -78 -1
-146 43 -343 115 -517 31 -75 123 -232 180 -306 46 -60 214 -225 275 -270 33
-24 62 -46 65 -49 19 -19 234 -126 300 -149 36 -13 72 -26 80 -29 26 -9 36
-12 135 -32 80 -17 197 -30 280 -31 8 0 147 9 223 14 12 1 22 5 22 9 0 3 8 5
18 4 9 -2 33 3 54 10 20 7 38 10 41 8 2 -3 17 1 33 7 16 7 37 14 47 15 9 2 45
15 79 29 34 14 67 25 75 25 7 0 13 4 13 9 0 7 17 16 50 25 3 0 26 13 52 29 26
15 51 27 56 27 6 0 12 7 16 15 3 8 12 15 20 15 8 0 16 3 18 8 2 4 23 20 48 37
60 40 248 228 291 290 19 28 37 52 42 53 4 2 7 8 7 14 0 5 11 24 24 41 29 39
136 261 140 292 3 15 26 97 36 125 5 14 12 48 16 75 3 28 8 61 10 75 3 14 6
53 8 86 2 34 6 66 10 72 3 6 2 13 -4 17 -7 4 -7 12 0 26 6 10 7 19 3 19 -4 0
-8 33 -8 73 0 39 -2 77 -5 82 -2 6 -5 17 -7 25 -3 26 -16 105 -18 110 -1 3 -7
25 -14 50 -32 122 -119 326 -145 342 -6 4 -8 8 -3 8 17 0 -119 188 -180 247
-18 18 -33 35 -33 37 0 8 -73 75 -140 127 -85 66 -93 72 -116 85 -126 72 -164
92 -164 87 0 -3 -10 1 -23 10 -25 16 -148 62 -211 78 -103 26 -166 36 -286 45
-102 7 -85 7 -195 -2 -49 -3 -100 -7 -112 -8 -13 0 -23 -4 -23 -8 0 -3 -8 -5
-17 -3 -10 1 -32 -3 -49 -10 -17 -7 -37 -10 -43 -6 -6 4 -31 64 -55 132 -41
116 -97 258 -133 339 -32 72 -158 327 -184 370 -14 25 -48 82 -75 128 -27 45
-54 90 -59 100 -28 48 -157 234 -212 307 -5 6 -21 28 -37 50 -17 22 -32 42
-36 45 -3 3 -32 39 -65 80 -33 41 -74 90 -92 108 -18 18 -33 35 -33 38 0 3
-15 20 -32 38 -18 18 -63 64 -99 102 -118 122 -293 281 -435 394 -102 81 -155
120 -163 120 -5 0 -11 3 -13 8 -5 11 -75 62 -86 62 -6 0 -12 3 -14 8 -5 11
-95 72 -106 72 -6 0 -12 4 -14 9 -6 15 -290 176 -438 248 -170 82 -224 107
-294 134 -28 11 -60 23 -71 28 -54 23 -72 30 -100 39 -16 6 -39 14 -50 18 -11
4 -22 8 -25 9 -6 1 -264 82 -306 95 -17 6 -39 10 -51 10 -11 0 -23 3 -27 7 -3
4 -17 8 -29 10 -12 1 -38 7 -57 13 -39 11 -214 46 -275 55 -22 3 -53 8 -70 11
-45 8 -112 17 -215 28 -25 3 -45 5 -45 6 0 8 -689 23 -697 15z"/>
<path d="M10085 11834 c-92 -24 -148 -56 -215 -125 -71 -73 -107 -154 -117
-263 -5 -57 11 -171 27 -191 5 -5 9 -14 10 -20 4 -29 37 -80 86 -134 94 -103
226 -162 394 -176 23 -2 88 -12 135 -21 11 -3 36 -7 55 -10 19 -3 43 -7 52
-10 10 -3 28 -7 40 -10 29 -5 52 -11 103 -24 22 -6 53 -13 69 -16 17 -3 95
-28 175 -55 80 -27 151 -50 158 -52 7 -2 16 -6 19 -10 4 -4 13 -7 20 -7 8 0
42 -13 76 -29 35 -15 73 -31 85 -35 53 -17 426 -213 431 -227 2 -5 8 -9 14 -9
8 0 99 -56 133 -82 6 -5 35 -25 65 -45 30 -20 57 -40 58 -45 2 -4 8 -8 14 -8
11 0 110 -79 116 -92 2 -5 8 -8 14 -8 5 0 15 -6 22 -12 7 -7 37 -33 67 -58
115 -95 441 -432 473 -489 6 -9 20 -27 33 -41 13 -14 32 -37 41 -52 9 -16 20
-28 24 -28 4 0 8 -7 8 -15 0 -8 4 -15 8 -15 4 0 24 -25 43 -55 18 -30 37 -55
42 -55 4 0 7 -4 7 -9 0 -5 18 -36 39 -69 86 -129 234 -408 292 -549 5 -13 13
-33 18 -45 5 -13 16 -39 25 -60 9 -20 16 -38 16 -41 0 -3 5 -18 12 -34 6 -15
12 -31 13 -35 2 -5 4 -10 5 -13 1 -3 4 -9 5 -15 1 -5 3 -11 5 -12 1 -2 3 -10
5 -18 1 -8 15 -50 29 -93 14 -43 28 -86 29 -95 1 -9 6 -23 11 -30 4 -7 5 -16
2 -19 -3 -3 -2 -11 3 -17 5 -6 12 -27 15 -46 3 -19 17 -87 30 -150 14 -63 27
-135 31 -160 3 -25 9 -61 12 -80 3 -19 7 -51 8 -70 2 -19 4 -35 5 -35 2 0 7
-64 15 -180 7 -111 7 -343 0 -445 -9 -129 -21 -250 -28 -291 -3 -15 -8 -52
-12 -83 -4 -31 -11 -59 -16 -62 -5 -3 -7 -10 -3 -15 4 -7 -5 -65 -21 -129 -1
-3 -7 -32 -14 -65 -14 -67 -14 -66 -73 -255 -23 -74 -41 -138 -40 -142 1 -5
-2 -8 -6 -8 -5 0 -9 -6 -9 -13 0 -45 -179 -430 -282 -607 -65 -112 -200 -314
-212 -318 -5 -2 -9 -8 -9 -14 0 -10 -70 -101 -82 -106 -5 -2 -8 -10 -8 -18 0
-9 -4 -12 -10 -9 -5 3 -10 1 -10 -4 0 -6 -9 -21 -19 -33 -11 -13 -29 -34 -41
-48 -12 -14 -36 -41 -53 -60 -18 -19 -42 -48 -55 -64 -12 -16 -22 -27 -22 -25
0 2 -49 -43 -108 -101 -118 -115 -183 -172 -282 -250 -36 -27 -75 -59 -88 -70
-13 -11 -36 -27 -53 -37 -16 -10 -29 -21 -29 -26 0 -4 -4 -6 -9 -3 -5 4 -11 3
-13 -2 -3 -8 -139 -99 -213 -142 -22 -13 -43 -29 -47 -34 -4 -6 -8 -8 -8 -4 0
4 -23 -6 -50 -22 -28 -17 -55 -30 -60 -30 -6 0 -10 -4 -10 -10 0 -5 -4 -10 -9
-10 -5 0 -60 -24 -122 -53 -116 -54 -170 -78 -179 -79 -3 -1 -34 -14 -70 -30
-36 -16 -67 -30 -70 -30 -6 -1 -31 -8 -50 -16 -8 -3 -18 -6 -22 -7 -5 -2 -10
-4 -13 -5 -3 -1 -8 -3 -12 -5 -5 -1 -15 -4 -23 -7 -34 -13 -229 -69 -260 -75
-8 -1 -53 -11 -100 -22 -47 -11 -100 -23 -119 -26 -18 -3 -36 -7 -40 -9 -3 -2
-33 -7 -66 -11 -73 -9 -87 -11 -145 -20 -80 -13 -311 -26 -455 -26 -101 0
-410 16 -410 21 0 2 -31 7 -95 14 -98 12 -119 15 -200 32 -8 2 -28 6 -45 8
-26 5 -213 52 -300 76 -45 12 -137 41 -160 50 -11 4 -81 31 -155 60 -110 42
-388 172 -450 209 -23 15 -233 141 -255 154 -11 7 -22 14 -25 18 -3 3 -26 19
-53 37 -26 17 -53 36 -60 42 -6 5 -37 29 -67 52 -74 57 -78 60 -101 80 -10 10
-21 18 -23 18 -15 0 -379 357 -438 431 -15 19 -39 48 -53 64 -29 34 -52 62
-95 120 -16 22 -34 45 -38 50 -5 6 -25 35 -45 65 -20 30 -40 60 -45 65 -27 35
-82 125 -82 134 0 6 -4 11 -8 11 -5 0 -17 19 -28 41 -10 23 -23 47 -29 53 -18
18 -163 314 -157 320 3 3 0 6 -6 6 -7 0 -12 7 -12 15 0 8 -13 44 -30 80 -16
36 -30 71 -30 79 0 7 -3 16 -7 20 -4 3 -8 12 -10 19 -2 7 -25 78 -52 158 -27
80 -52 158 -55 175 -3 16 -10 47 -16 69 -12 44 -17 68 -24 103 -3 13 -7 31
-10 40 -3 9 -7 33 -10 52 -3 19 -8 45 -10 56 -8 39 -17 99 -21 134 -2 19 -6
51 -9 70 -3 19 -1 49 4 65 5 17 11 41 14 55 3 14 8 36 11 50 6 26 12 80 21
190 7 78 7 68 0 160 -25 366 -153 660 -400 918 -72 75 -69 72 -126 118 -228
185 -526 303 -807 319 -44 2 -85 5 -89 6 -5 1 -11 1 -14 0 -3 -1 -41 -4 -85
-6 -83 -5 -112 -8 -180 -21 -22 -4 -47 -8 -55 -9 -8 -1 -22 -5 -30 -7 -8 -3
-53 -18 -99 -32 -142 -45 -282 -117 -412 -212 -62 -46 -269 -247 -269 -262 0
-4 -10 -18 -23 -32 -95 -105 -224 -391 -256 -567 -6 -32 -13 -69 -16 -83 -5
-23 -17 -182 -16 -205 5 -132 17 -240 31 -295 5 -19 12 -50 15 -69 6 -35 64
-197 93 -261 60 -132 169 -280 298 -405 106 -104 103 -101 187 -159 117 -82
351 -191 457 -211 8 -2 15 -4 15 -5 0 -1 11 -3 25 -5 14 -2 39 -6 55 -9 36 -7
104 -16 165 -22 62 -6 58 -6 125 -3 33 2 65 0 71 -4 6 -3 14 -3 18 0 8 8 23
11 86 18 25 2 63 9 84 14 22 5 42 9 45 9 3 -1 13 1 21 5 8 3 49 15 90 27 41
12 92 31 112 41 21 11 38 16 38 13 0 -4 9 1 21 12 12 10 24 19 26 19 3 0 27
-65 53 -145 47 -145 88 -254 118 -320 9 -19 15 -39 14 -44 -2 -5 5 -17 14 -27
9 -11 14 -19 10 -19 -4 0 0 -12 8 -27 8 -16 47 -95 87 -176 39 -82 94 -188
122 -235 28 -48 55 -97 61 -109 6 -13 14 -23 19 -23 4 0 7 -5 7 -11 0 -5 18
-37 40 -69 22 -32 40 -63 40 -69 0 -5 4 -11 8 -13 5 -1 28 -32 52 -68 52 -78
102 -144 113 -148 4 -2 7 -9 7 -15 0 -7 12 -25 28 -42 15 -16 54 -63 86 -104
33 -41 78 -95 100 -120 68 -77 357 -364 421 -418 57 -49 73 -63 125 -106 13
-11 64 -50 114 -88 50 -38 96 -72 101 -76 59 -46 85 -63 93 -63 6 0 12 -3 14
-7 5 -12 95 -73 106 -73 6 0 12 -4 14 -8 2 -5 37 -28 78 -53 41 -24 77 -47 78
-51 2 -5 12 -8 23 -8 10 0 19 -4 19 -8 0 -4 15 -15 33 -23 17 -9 93 -47 167
-86 137 -70 305 -145 460 -203 47 -17 93 -36 102 -41 10 -5 27 -9 37 -9 11 0
22 -4 25 -9 3 -5 18 -11 33 -14 16 -2 73 -18 127 -35 55 -17 103 -29 108 -26
4 3 8 1 8 -4 0 -5 6 -9 13 -10 6 0 23 -3 37 -7 34 -9 101 -25 125 -30 11 -2
61 -13 110 -23 50 -11 110 -23 135 -26 25 -3 59 -9 75 -12 48 -9 97 -15 137
-17 21 -1 38 -4 38 -7 0 -3 17 -5 38 -4 20 0 41 -1 45 -4 32 -16 631 -23 797
-8 152 13 173 15 205 20 17 3 56 8 88 11 32 4 68 8 80 11 12 3 36 7 52 9 34 6
67 12 75 15 3 1 9 2 13 1 4 -1 36 5 71 13 35 9 75 17 87 20 13 3 71 17 129 31
58 15 110 28 115 29 6 1 51 15 100 31 50 16 92 30 95 30 3 1 12 4 20 7 8 3 56
20 105 37 50 18 99 36 110 41 11 4 38 15 60 23 22 9 67 28 100 43 33 15 62 28
65 28 15 3 350 176 430 223 91 53 366 233 406 266 10 9 64 51 119 94 174 136
218 175 420 378 94 94 186 190 205 213 19 24 50 60 68 80 18 20 65 80 105 132
40 52 74 97 77 100 3 3 14 19 26 35 11 17 40 59 65 95 55 79 149 229 149 236
0 3 5 10 10 17 38 43 290 544 290 575 0 5 6 22 14 38 28 57 55 132 49 138 -4
3 -1 6 5 6 7 0 12 8 12 18 0 10 3 22 8 26 4 4 7 11 7 14 1 4 16 51 34 105 38
115 72 235 74 260 1 9 6 17 11 17 5 0 7 3 4 6 -3 3 0 29 8 57 8 29 16 63 19
77 3 14 7 36 10 50 8 32 13 58 20 95 2 17 12 71 21 120 9 50 18 108 19 130 2
22 4 40 5 40 1 0 3 16 5 35 2 19 6 55 9 80 29 240 29 766 0 970 -2 19 -7 55
-10 80 -4 45 -9 77 -19 135 -3 17 -7 48 -10 70 -3 22 -7 47 -8 55 -2 8 -7 33
-11 55 -5 22 -16 74 -26 115 -10 41 -21 89 -24 105 -7 38 -17 78 -51 190 -15
50 -28 95 -29 100 -1 6 -4 15 -7 20 -5 9 -11 29 -25 80 -3 12 -78 209 -95 250
-7 17 -13 32 -14 35 -2 6 -24 60 -32 80 -3 8 -5 18 -5 23 1 4 -3 7 -8 7 -6 0
-10 6 -10 13 0 17 -205 422 -220 437 -3 3 -25 39 -50 80 -24 41 -47 77 -52 78
-4 2 -8 8 -8 14 0 11 -61 101 -72 106 -5 2 -8 8 -8 14 0 8 -17 34 -63 93 -4 5
-38 51 -76 101 -38 50 -77 101 -88 114 -46 55 -57 69 -106 125 -29 32 -68 76
-87 96 -19 20 -54 57 -76 81 -94 98 -267 258 -375 344 -41 32 -87 71 -104 86
-16 16 -35 28 -42 28 -6 0 -13 3 -15 8 -4 10 -70 60 -148 112 -36 24 -66 47
-68 52 -2 4 -8 8 -13 8 -6 0 -37 18 -69 40 -32 22 -64 40 -69 40 -6 0 -11 3
-11 8 0 4 -10 12 -23 18 -12 6 -61 33 -109 61 -47 28 -153 83 -235 122 -81 40
-160 79 -175 87 -16 8 -28 12 -28 8 0 -4 -8 1 -19 10 -10 9 -22 16 -27 14 -5
-1 -25 5 -44 14 -96 45 -432 160 -530 183 -8 2 -60 15 -115 28 -103 27 -280
63 -344 72 -20 3 -49 7 -66 11 -16 3 -46 7 -65 10 -19 2 -48 6 -65 8 -61 8
-221 15 -240 10z"/>
</g>
</svg>
