<svg width="37" height="37" viewBox="0 0 37 37" fill="none" xmlns="http://www.w3.org/2000/svg">
<path d="M23.125 15.4166C23.9764 15.4166 24.6667 14.7264 24.6667 13.875C24.6667 13.0235 23.9764 12.3333 23.125 12.3333C22.2736 12.3333 21.5833 13.0235 21.5833 13.875C21.5833 14.7264 22.2736 15.4166 23.125 15.4166Z" fill="#3E8BFF"/>
<path d="M13.875 15.4166C14.7264 15.4166 15.4167 14.7264 15.4167 13.875C15.4167 13.0235 14.7264 12.3333 13.875 12.3333C13.0236 12.3333 12.3333 13.0235 12.3333 13.875C12.3333 14.7264 13.0236 15.4166 13.875 15.4166Z" fill="#3E8BFF"/>
<path d="M13.875 9.24998V7.70831C13.875 6.48169 14.3623 5.3053 15.2296 4.43794C16.097 3.57059 17.2734 3.08331 18.5 3.08331C19.7266 3.08331 20.903 3.57059 21.7704 4.43794C22.6377 5.3053 23.125 6.48169 23.125 7.70831V9.24998M31.1787 19.3109C30.2753 14.4994 29.8251 12.0928 28.1107 10.6714C26.401 9.24998 23.9529 9.24998 19.055 9.24998H17.945C13.0487 9.24998 10.6005 9.24998 8.88771 10.6714C7.17646 12.0928 6.72475 14.4994 5.82133 19.3109C4.55254 26.0773 3.91892 29.4597 5.76892 31.6889C7.61892 33.9166 11.0599 33.9166 17.9435 33.9166H19.0565C25.9401 33.9166 29.3826 33.9166 31.2311 31.6889C32.3041 30.3939 32.5415 28.7135 32.3041 26.2083" stroke="#3E8BFF" stroke-width="2.3125" stroke-linecap="round"/>
</svg>
