<svg width="67" height="67" viewBox="0 0 67 67" fill="none" xmlns="http://www.w3.org/2000/svg">
<path d="M8.85533 58.1448C12.1244 61.4167 17.3895 61.4167 27.9168 61.4167H39.0835C49.6109 61.4167 54.876 61.4167 58.145 58.1448C61.4168 54.8758 61.4168 49.6107 61.4168 39.0833C61.4168 35.8171 61.4168 33.0589 61.3191 30.7083C61.3191 30.7083 61.414 23.2937 58.145 20.0218C54.876 16.75 49.6109 16.75 39.0835 16.75H27.9168C17.3895 16.75 12.1244 16.75 8.85533 20.0218C5.5835 23.2909 5.5835 28.556 5.5835 39.0833C5.5835 42.3496 5.5835 40.1078 5.6812 42.4583M44.6668 16.75C44.6668 11.4849 44.6668 8.85517 43.0309 7.21926C41.395 5.58334 35 5.49997 34 5.49997C33 5.49997 25.6053 5.58334 23.9694 7.21926C22.3335 8.85517 22.3335 11.4849 22.3335 16.75" stroke="#3E8BFF" stroke-width="4.1875" stroke-linecap="round"/>
<path d="M33.5003 48.3879C36.5851 48.3879 39.0837 46.3053 39.0837 43.737C39.0837 41.1686 36.5851 39.0833 33.5003 39.0833C30.4155 39.0833 27.917 37.0007 27.917 34.4296C27.917 31.8612 30.4155 29.7786 33.5003 29.7786M33.5003 48.3879C30.4155 48.3879 27.917 46.3053 27.917 43.737M33.5003 48.3879V50.2499M33.5003 29.7786V27.9166M33.5003 29.7786C36.5851 29.7786 39.0837 31.8612 39.0837 34.4296" stroke="#3E8BFF" stroke-width="4.1875" stroke-linecap="round"/>
<circle cx="5.5" cy="43.5" r="5.5" fill="#3E8BFF"/>
</svg>
