<svg width="67" height="67" viewBox="0 0 67 67" fill="none" xmlns="http://www.w3.org/2000/svg">
<path d="M20.9375 50.25C22.0481 50.25 23.1132 50.6912 23.8985 51.4765C24.6838 52.2618 25.125 53.3269 25.125 54.4375C25.125 55.5481 24.6838 56.6132 23.8985 57.3985C23.1132 58.1838 22.0481 58.625 20.9375 58.625C19.8269 58.625 18.7618 58.1838 17.9765 57.3985C17.1912 56.6132 16.75 55.5481 16.75 54.4375C16.75 53.3269 17.1912 52.2618 17.9765 51.4765C18.7618 50.6912 19.8269 50.25 20.9375 50.25ZM46.0625 50.25C47.1731 50.25 48.2382 50.6912 49.0235 51.4765C49.8088 52.2618 50.25 53.3269 50.25 54.4375C50.25 55.5481 49.8088 56.6132 49.0235 57.3985C48.2382 58.1838 47.1731 58.625 46.0625 58.625C44.9519 58.625 43.8868 58.1838 43.1015 57.3985C42.3162 56.6132 41.875 55.5481 41.875 54.4375C41.875 53.3269 42.3162 52.2618 43.1015 51.4765C43.8868 50.6912 44.9519 50.25 46.0625 50.25Z" stroke="#3E8BFF" stroke-width="4.1875"/>
<path d="M5.5835 8.375L6.31212 8.63183C9.94687 9.90762 11.7642 10.5469 12.8027 12.0684C13.8412 13.5898 13.8412 15.6082 13.8412 19.6477V27.2467C13.8412 35.4597 14.0171 38.1677 16.4375 40.7192C18.8551 43.2708 22.7467 43.2708 30.5354 43.2708H45.3368C49.6946 43.2708 51.8749 43.2708 53.4159 42.0146C54.9541 40.7583 55.3952 38.6255 56.2746 34.357L57.6704 27.59C58.6391 22.7325 59.1221 20.3066 57.8826 18.6958C56.6459 17.085 52.4109 17.085 47.707 17.085H30.7755M13.8412 17.085H19.5418" stroke="#3E8BFF" stroke-width="4.1875" stroke-linecap="round"/>
<circle cx="31.5" cy="17.5" r="5.5" fill="#3E8BFF"/>
</svg>
