<svg width="37" height="37" viewBox="0 0 37 37" fill="none" xmlns="http://www.w3.org/2000/svg">
<path d="M33.9166 19.0442C33.9166 23.2175 30.9458 26.7063 26.9791 27.5542M9.69084 27.75C6.04171 27.75 3.08325 24.827 3.08325 21.221C3.08325 17.6135 6.04171 14.6905 9.69084 14.6905C10.1287 14.6905 10.5573 14.7337 10.9704 14.8139M22.1706 10.8333C23.1148 10.5043 24.1077 10.337 25.1075 10.3384C26.1158 10.3384 27.0855 10.5064 27.9904 10.8148M27.9904 10.8148C27.4986 6.46573 23.7663 3.08331 19.2338 3.08331C14.3683 3.08331 10.4247 6.98065 10.4231 11.7891C10.4219 12.822 10.6067 13.8466 10.9689 14.8139C11.8219 14.9795 12.6339 15.3117 13.3585 15.7913M27.9904 10.8148C29.0307 11.1704 29.9939 11.7173 30.8333 12.4274" stroke="#3E8BFF" stroke-width="2.3125" stroke-linecap="round"/>
<path d="M13.104 26.2083C13.104 24.0284 13.104 22.9384 13.7823 22.2616C14.4591 21.5833 15.5491 21.5833 17.729 21.5833H19.2707C21.4506 21.5833 22.5405 21.5833 23.2173 22.2616C23.8957 22.9384 23.8957 24.0284 23.8957 26.2083V29.2916C23.8957 31.4716 23.8957 32.5615 23.2173 33.2383C22.5405 33.9166 21.4506 33.9166 19.2707 33.9166H17.729C15.5491 33.9166 14.4591 33.9166 13.7823 33.2383C13.104 32.5615 13.104 31.4716 13.104 29.2916V26.2083Z" stroke="#3E8BFF" stroke-width="2.3125"/>
<path d="M16.9583 27.75H20.0416" stroke="#3E8BFF" stroke-width="2.3125" stroke-linecap="round" stroke-linejoin="round"/>
</svg>
