<svg width="67" height="67" viewBox="0 0 67 67" fill="none" xmlns="http://www.w3.org/2000/svg">
<path d="M43.2712 25.1249L43.7513 25.605C47.4726 29.3263 49.3347 31.1884 49.3347 33.4999C49.3347 35.8114 47.4726 37.6734 43.7513 41.3947L43.2712 41.8749M37.1128 20.0161L33.5003 33.4999L29.8879 46.9836M23.7295 25.1249L23.2493 25.605C19.5281 29.3263 17.666 31.1884 17.666 33.4999C17.666 35.8114 19.5281 37.6734 23.2493 41.3947L23.7295 41.8749" stroke="#FFF" stroke-width="4.1875" stroke-linecap="round"/>
<path d="M61.4168 35.161C61.4168 48.3209 61.4168 53.2397 57.327 57.3267C53.2428 61.4165 46.6601 61.4165 33.5002 61.4165C20.3402 61.4165 13.7603 61.4165 9.6705 57.3267C5.5835 53.2425 5.5835 46.6598 5.5835 33.4999C5.5835 20.3399 5.5835 13.76 9.6705 9.67019C13.7631 5.58319 20.3402 5.58319 33.5002 5.58319C46.6601 5.58319 53.24 5.58319 57.327 9.67019C60.0461 12.3893 60.9562 16.2111 61.2633 22.3332" stroke="#FFF" stroke-width="4.1875" stroke-linecap="round"/>
<circle cx="61.4253" cy="23.2191" r="5.5" fill="#FFF"/>
</svg>
