<svg width="67" height="67" viewBox="0 0 67 67" fill="none" xmlns="http://www.w3.org/2000/svg">
<path d="M61.4168 61.4167H33.5002C20.3402 61.4167 13.7603 61.4167 9.6705 57.3269C5.5835 53.2427 5.5835 46.6599 5.5835 33.5V31.125M5.5835 5.58334V13.9583" stroke="#3E8BFF" stroke-width="4.1875" stroke-linecap="round"/>
<path d="M53.0417 19.5418L44.3373 30.5019C43.0056 32.1824 42.3384 33.0227 41.5735 33.4331C40.9929 33.7435 40.3472 33.9125 39.689 33.9266C39.0308 33.9407 38.3786 33.7993 37.7852 33.5141C37.0035 33.1372 36.3028 32.3276 34.8958 30.7084C33.4916 29.0893 32.7881 28.2797 32.0065 27.9028C31.4133 27.6185 30.7614 27.4778 30.1037 27.4924C29.446 27.5069 28.801 27.6762 28.221 27.9866C27.456 28.3942 26.7888 29.2344 25.4572 30.9122L16.75 41.8751" stroke="#3E8BFF" stroke-width="4.1875" stroke-linecap="round"/>
<circle cx="5.5" cy="30.5" r="5.5" fill="#3E8BFF"/>
</svg>
