<svg width="37" height="37" viewBox="0 0 37 37" fill="none" xmlns="http://www.w3.org/2000/svg">
<path d="M18.5 9.25V27.75M23.125 14.6458C23.125 12.5183 21.0545 10.7917 18.5 10.7917C15.9455 10.7917 13.875 12.5183 13.875 14.6458C13.875 16.7733 15.9455 18.5 18.5 18.5C21.0545 18.5 23.125 20.2267 23.125 22.3542C23.125 24.4817 21.0545 26.2083 18.5 26.2083C15.9455 26.2083 13.875 24.4817 13.875 22.3542" stroke="#3E8BFF" stroke-width="2.3125" stroke-linecap="round"/>
<path d="M10.7917 5.14608C13.1343 3.7908 15.7936 3.07916 18.5 3.08333C27.0146 3.08333 33.9167 9.98537 33.9167 18.5C33.9167 27.0146 27.0146 33.9167 18.5 33.9167C9.98539 33.9167 3.08334 27.0146 3.08334 18.5C3.08334 15.6926 3.83414 13.0579 5.14609 10.7917" stroke="#3E8BFF" stroke-width="2.3125" stroke-linecap="round"/>
</svg>
