<svg width="38" height="38" viewBox="0 0 38 38" fill="none" xmlns="http://www.w3.org/2000/svg">
<path d="M11.2916 5.64608C13.6342 4.2908 16.2935 3.57916 18.9999 3.58333C27.5145 3.58333 34.4166 10.4854 34.4166 19C34.4166 27.5146 27.5145 34.4167 18.9999 34.4167C10.4853 34.4167 3.58325 27.5146 3.58325 19C3.58325 16.1926 4.33404 13.5579 5.646 11.2917" stroke="#3E8BFF" stroke-width="2.3125" stroke-linecap="round"/>
<path d="M23.3598 29.9011C22.7878 31.3333 22.1079 32.468 21.3602 33.2434C20.611 34.0174 19.8093 34.4166 18.9999 34.4166C18.1905 34.4166 17.3889 34.0174 16.6412 33.2434C15.8919 32.468 15.212 31.3318 14.6401 29.9011C14.0666 28.4689 13.6118 26.7715 13.3019 24.8999C12.9858 22.9493 12.8291 20.9761 12.8333 19C12.8333 16.9758 12.992 14.9701 13.3019 13.1C13.6118 11.23 14.0666 9.53106 14.6401 8.09885C15.212 6.66665 15.8919 5.53198 16.6396 4.75652C17.3889 3.98415 18.1905 3.58331 18.9999 3.58331C19.8093 3.58331 20.611 3.9826 21.3587 4.75652C22.1079 5.53198 22.7878 6.66819 23.3598 8.09885C23.9333 9.53106 24.388 11.2284 24.6964 13.1C25.0063 14.9701 25.1666 16.9758 25.1666 19C25.1666 21.0242 25.0063 23.0299 24.6964 24.8999M3.58325 19H15.9166M34.4166 19H22.0833" stroke="#3E8BFF" stroke-width="2.3125" stroke-linecap="round"/>
</svg>
