<svg width="67" height="67" viewBox="0 0 67 67" fill="none" xmlns="http://www.w3.org/2000/svg">
<path d="M8.30811 35.0473C8.7996 28.9489 13.6415 24.107 19.7399 23.6155C20.2401 23.5752 20.8332 23.5752 22.0193 23.5752H47.2517C48.4345 23.5752 49.0259 23.5752 49.5248 23.6153C55.6254 24.1056 60.4693 28.9495 60.9596 35.0501C60.9997 35.549 60.9997 36.1404 60.9997 37.3232C60.9997 38.7679 60.9996 39.4902 60.9565 40.0078C60.4128 46.5254 55.3612 51.2855 48.8228 51.4415C48.3036 51.4538 47.4951 51.4058 45.878 51.3096C42.122 51.0863 38.23 46.3837 34.93 46.3793C31.4535 46.3746 27.3343 51.0842 23.3865 51.3177C21.7679 51.4134 20.9586 51.4613 20.438 51.4486C15.674 51.3324 11.7 48.7714 9.68531 44.868M40.5 23.5752V21.3072C40.5 19.1811 40.5 18.118 39.9586 17.3727C39.7837 17.1321 39.572 16.9204 39.3314 16.7455C38.5861 16.2041 36 16 34.5 16C32.3739 16 30.2077 16.2041 29.4625 16.7455C29.2218 16.9204 29.0101 17.1321 28.8353 17.3727C28.2938 18.118 28.2938 19.1811 28.2938 21.3072V23.5752H40.5Z" stroke="#3E8BFF" stroke-width="4.19" stroke-linecap="round"/>
<circle cx="9.40206" cy="45.1215" r="3.40206" fill="#3E8BFF"/>
</svg>
