<svg width="37" height="37" viewBox="0 0 37 37" fill="none" xmlns="http://www.w3.org/2000/svg">
<path d="M27.75 12.3333V20.0417C27.75 22.4949 26.7754 24.8477 25.0407 26.5824C23.306 28.3171 20.9533 29.2917 18.5 29.2917C16.0467 29.2917 13.694 28.3171 11.9593 26.5824C10.2246 24.8477 9.25 22.4949 9.25 20.0417V12.3333C9.25005 10.46 9.81888 8.63087 10.8812 7.08791C11.9436 5.54496 13.4494 4.36093 15.1994 3.69248C16.9493 3.02403 18.8611 2.90268 20.6815 3.34449C22.502 3.78629 24.1454 4.77042 25.3943 6.16666" stroke="#3E8BFF" stroke-width="2.3125" stroke-linecap="round"/>
<path d="M15.4167 10.0208C15.4167 10.0208 16.1459 9.25 18.5 9.25C20.8541 9.25 21.5833 10.0208 21.5833 10.0208M15.4167 14.6458C15.4167 14.6458 16.1459 13.875 18.5 13.875C20.8541 13.875 21.5833 14.6458 21.5833 14.6458M32.375 16.9583V20.0417C32.3755 22.6262 31.6541 25.1594 30.2922 27.356C28.9303 29.5525 26.9819 31.325 24.6667 32.4737M4.625 16.9583V20.0417C4.625 23.7215 6.08683 27.2507 8.68889 29.8528C11.291 32.4548 14.8201 33.9167 18.5 33.9167" stroke="#3E8BFF" stroke-width="2.3125" stroke-linecap="round"/>
</svg>
