<svg width="37" height="37" viewBox="0 0 37 37" fill="none" xmlns="http://www.w3.org/2000/svg">
<path d="M7.70825 3.47181C6.515 3.73235 5.61313 4.16556 4.89009 4.89015C3.08325 6.69544 3.08325 9.60302 3.08325 15.4166V16.9583C3.08325 21.3181 3.08325 23.4996 4.43838 24.8532C5.79196 26.2083 7.97342 26.2083 12.3333 26.2083H24.6666C29.0264 26.2083 31.2079 26.2083 32.5615 24.8532C33.9166 23.4996 33.9166 21.3181 33.9166 16.9583V15.4166C33.9166 9.60302 33.9166 6.69544 32.1098 4.89015C30.3045 3.08331 27.3969 3.08331 21.5833 3.08331H13.8749M24.6666 33.9166H12.3333M18.4999 26.2083V33.9166M33.9166 20.0416H24.6666M3.08325 20.0416H18.4999" stroke="#3E8BFF" stroke-width="2.3125" stroke-linecap="round"/>
</svg>
