<svg width="67" height="67" viewBox="0 0 67 67" fill="none" xmlns="http://www.w3.org/2000/svg">
<path d="M12.1865 27.1463C12.1865 27.1463 12.3311 36.5206 21.404 45.5963C23.3804 47.5907 25.5637 49.3688 27.917 50.9004C30.2702 52.4321 34.7204 54.1934 37.5 55C40.2795 55.8066 41.9615 55.9139 44.854 55.8138C48.017 55.6965 50.8812 53.8763 53.2179 51.5425C57.1066 47.6509 56.5846 41.4478 52.1598 38.98L48.9131 37.1654C45.9847 35.5323 42.1405 36.1883 39.5638 38.7651C39.5638 38.7651 36.4371 41.8833 30.7784 36.2246C25.1114 30.5603 28.238 27.4365 28.238 27.4365C30.8119 24.8598 31.468 21.0184 29.8349 18.0872L28.0231 14.8433C25.5524 10.4157 19.3494 9.89364 15.4606 13.7824" stroke="#3E8BFF" stroke-width="4.1875" stroke-linecap="round"/>
<circle cx="12.5" cy="27.5" r="5.5" fill="#3E8BFF"/>
</svg>
