<svg width="38" height="38" viewBox="0 0 38 38" fill="none" xmlns="http://www.w3.org/2000/svg">
<path d="M14.3748 17.4583C16.0777 17.4583 17.4582 16.0779 17.4582 14.375C17.4582 12.6721 16.0777 11.2917 14.3748 11.2917C12.672 11.2917 11.2915 12.6721 11.2915 14.375C11.2915 16.0779 12.672 17.4583 14.3748 17.4583Z" stroke="#3E8BFF" stroke-width="2.3125"/>
<path d="M20.5416 23.625C20.5416 25.3285 20.5416 26.7083 14.3749 26.7083C8.20825 26.7083 8.20825 25.3285 8.20825 23.625C8.20825 21.9214 10.9678 20.5417 14.3749 20.5417C17.782 20.5417 20.5416 21.9214 20.5416 23.625Z" stroke="#3E8BFF" stroke-width="2.3125"/>
<path d="M34.4166 19C34.4166 24.8136 34.4166 27.7212 32.6098 29.5265C30.8045 31.3333 27.8969 31.3333 22.0833 31.3333H15.9166C10.103 31.3333 7.19538 31.3333 5.39009 29.5265C3.58325 27.7212 3.58325 24.8136 3.58325 19C3.58325 13.1864 3.58325 10.2788 5.39009 8.47349C7.19538 6.66666 10.103 6.66666 15.9166 6.66666H22.0833C27.8969 6.66666 30.8045 6.66666 32.6098 8.47349C33.3343 9.19807 33.7675 10.0984 34.0281 11.2917M29.7916 19H23.6249M29.7916 14.375H22.0833M29.7916 23.625H25.1666" stroke="#3E8BFF" stroke-width="2.3125" stroke-linecap="round"/>
</svg>
