<svg width="37" height="37" viewBox="0 0 37 37" fill="none" xmlns="http://www.w3.org/2000/svg">
<path d="M33.0625 10.898C32.4403 9.3233 31.5015 7.89302 30.3042 6.69574C29.1069 5.49845 27.6766 4.55964 26.1019 3.93741C23.7246 3.00162 21.5833 5.15533 21.5833 7.70833V13.875C21.5833 14.2839 21.7457 14.676 22.0348 14.9651C22.3239 15.2542 22.716 15.4167 23.1249 15.4167H29.2916C31.8461 15.4167 33.9983 13.2737 33.0625 10.898Z" stroke="#3E8BFF" stroke-width="2.3125"/>
<path d="M9.59226 7.0932C10.2746 6.63744 10.994 6.23984 11.7429 5.90458C13.8581 4.95645 14.9156 4.48316 16.3216 5.39583C17.7292 6.30541 17.7292 7.80083 17.7292 10.7917V13.1042C17.7292 16.0117 17.7292 17.464 18.6326 18.3674C19.536 19.2708 20.9883 19.2708 23.8958 19.2708H26.2083C29.1992 19.2708 30.6946 19.2708 31.6042 20.6768C32.5168 22.0844 32.0436 23.142 31.0954 25.2556C29.7402 28.2833 27.3972 30.7611 24.4499 32.2833C21.5026 33.8056 18.1258 34.282 14.8725 33.6345C12.7486 33.2121 10.7448 32.3239 9.00548 31.034C7.26612 29.7441 5.83443 28.0846 4.81352 26.1749C3.79261 24.2652 3.20788 22.1528 3.10144 19.99C2.995 17.8271 3.3695 15.6676 4.19797 13.6669" stroke="#3E8BFF" stroke-width="2.3125" stroke-linecap="round"/>
</svg>
