<svg width="37" height="37" viewBox="0 0 37 37" fill="none" xmlns="http://www.w3.org/2000/svg">
<path d="M14.6458 19.1167L16.8488 21.5833L22.3541 15.4167" stroke="#3E8BFF" stroke-width="2.3125" stroke-linecap="round" stroke-linejoin="round"/>
<path d="M4.625 16.0595C4.625 11.1293 4.625 8.66416 5.20775 7.83474C5.78896 7.00687 8.10608 6.21291 12.7419 4.62654L13.6253 4.32437C16.041 3.4965 17.2482 3.08333 18.5 3.08333C19.7503 3.08333 20.959 3.4965 23.3747 4.32437L24.2581 4.62654C28.8939 6.21291 31.211 7.00687 31.7922 7.83474C32.375 8.66416 32.375 11.1308 32.375 16.0595V18.4861C32.375 22.348 31.0846 25.3265 29.2917 27.602M4.92254 21.5833C6.24375 28.2094 11.6797 31.6242 15.261 33.1875C16.3725 33.6731 16.929 33.9167 18.5 33.9167C20.0725 33.9167 20.6275 33.6731 21.739 33.1875C22.6317 32.799 23.6368 32.2933 24.6667 31.655" stroke="#3E8BFF" stroke-width="2.3125" stroke-linecap="round"/>
</svg>
