<svg width="38" height="38" viewBox="0 0 38 38" fill="none" xmlns="http://www.w3.org/2000/svg">
<path d="M12.8335 20.5416V25.1666H25.1668V12.8333H12.8335V14.375" stroke="#3E8BFF" stroke-width="2.3125" stroke-linecap="round"/>
<path d="M25.1668 25.1682H29.7918C30.7065 25.1682 31.6007 25.4394 32.3613 25.9476C33.1218 26.4558 33.7146 27.1782 34.0647 28.0233C34.4148 28.8684 34.5063 29.7983 34.3279 30.6955C34.1494 31.5926 33.7089 32.4167 33.0621 33.0636C32.4153 33.7104 31.5912 34.1509 30.694 34.3293C29.7969 34.5078 28.867 34.4162 28.0218 34.0661C27.1767 33.7161 26.4544 33.1233 25.9462 32.3627C25.438 31.6021 25.1668 30.7079 25.1668 29.7932V25.1682ZM12.835 25.1682H8.20996C7.29522 25.1682 6.40103 25.4394 5.64045 25.9476C4.87987 26.4558 4.28708 27.1782 3.93702 28.0233C3.58696 28.8684 3.49537 29.7983 3.67383 30.6955C3.85229 31.5926 4.29278 32.4167 4.93959 33.0636C5.58641 33.7104 6.41051 34.1509 7.30767 34.3293C8.20483 34.5078 9.13477 34.4162 9.97987 34.0661C10.825 33.7161 11.5473 33.1233 12.0555 32.3627C12.5637 31.6021 12.835 30.7079 12.835 29.7932V25.1682ZM25.1668 12.8333H29.7918C30.7065 12.8333 31.6007 12.5621 32.3613 12.0539C33.1218 11.5457 33.7146 10.8233 34.0647 9.97823C34.4148 9.13312 34.5063 8.20319 34.3279 7.30602C34.1494 6.40886 33.7089 5.58476 33.0621 4.93795C32.4153 4.29113 31.5912 3.85064 30.694 3.67218C29.7969 3.49373 28.867 3.58532 28.0218 3.93537C27.1767 4.28543 26.4544 4.87823 25.9462 5.6388C25.438 6.39938 25.1668 7.29358 25.1668 8.20832V12.8333ZM12.835 12.8333H8.20996C7.29522 12.8333 6.40103 12.5621 5.64045 12.0539C4.87987 11.5457 4.28708 10.8233 3.93702 9.97823C3.58696 9.13312 3.49537 8.20319 3.67383 7.30602C3.85229 6.40886 4.29278 5.58476 4.93959 4.93795C5.58641 4.29113 6.41051 3.85064 7.30767 3.67218C8.20483 3.49373 9.13477 3.58532 9.97987 3.93537C10.825 4.28543 11.5473 4.87823 12.0555 5.6388C12.5637 6.39938 12.835 7.29358 12.835 8.20832V12.8333Z" stroke="#3E8BFF" stroke-width="2.3125"/>
</svg>
