<svg width="37" height="37" viewBox="0 0 37 37" fill="none" xmlns="http://www.w3.org/2000/svg">
<path d="M13.875 15.4166C17.2808 15.4166 20.0417 12.6557 20.0417 9.24998C20.0417 5.84422 17.2808 3.08331 13.875 3.08331C10.4692 3.08331 7.70834 5.84422 7.70834 9.24998C7.70834 12.6557 10.4692 15.4166 13.875 15.4166Z" stroke="#3E8BFF" stroke-width="2.3125"/>
<path d="M23.125 13.875C24.3516 13.875 25.528 13.3877 26.3954 12.5204C27.2627 11.653 27.75 10.4766 27.75 9.25C27.75 8.02337 27.2627 6.84699 26.3954 5.97963C25.528 5.11228 24.3516 4.625 23.125 4.625M9.08042 31.7337C10.5219 32.1437 12.1514 32.375 13.875 32.375C19.8351 32.375 24.6667 29.6154 24.6667 26.2083C24.6667 22.8012 19.8351 20.0417 13.875 20.0417C7.91492 20.0417 3.08334 22.8012 3.08334 26.2083C3.08334 26.7402 3.20204 27.2567 3.4225 27.75M27.75 21.5833C30.4541 22.1769 32.375 23.6785 32.375 25.4375C32.375 27.0254 30.8118 28.4021 28.5208 29.0913" stroke="#3E8BFF" stroke-width="2.3125" stroke-linecap="round"/>
</svg>
