<svg width="38" height="38" viewBox="0 0 38 38" fill="none" xmlns="http://www.w3.org/2000/svg">
<path d="M23.6249 8.20833H14.3749C10.0444 8.20833 7.87988 8.20833 6.32434 9.24741C5.65071 9.69744 5.07236 10.2758 4.62234 10.9494C3.58325 12.505 3.58325 14.6679 3.58325 19C3.58325 23.3305 3.58325 25.495 4.62234 27.0506C5.07236 27.7242 5.65071 28.3026 6.32434 28.7526C6.85929 29.1102 7.46517 29.3446 8.20825 29.4987M14.3749 29.7917H23.6249C27.9555 29.7917 30.12 29.7917 31.6755 28.7526C32.349 28.3025 32.9274 27.7241 33.3775 27.0506C34.4166 25.495 34.4166 23.3321 34.4166 19C34.4166 14.6695 34.4166 12.505 33.3775 10.9494C32.9274 10.2758 32.3491 9.6975 31.6755 9.24741C31.1405 8.88974 30.5347 8.65541 29.7916 8.50125" stroke="#3E8BFF" stroke-width="2.3125" stroke-linecap="round"/>
<path d="M14.375 14.375C13.1484 14.375 11.972 14.8623 11.1046 15.7296C10.2373 16.597 9.75 17.7734 9.75 19C9.75 20.2266 10.2373 21.403 11.1046 22.2704C11.972 23.1377 13.1484 23.625 14.375 23.625M23.625 14.375C24.8516 14.375 26.028 14.8623 26.8954 15.7296C27.7627 16.597 28.25 17.7734 28.25 19C28.25 20.2266 27.7627 21.403 26.8954 22.2704C26.028 23.1377 24.8516 23.625 23.625 23.625" stroke="#3E8BFF" stroke-width="2.3125"/>
<path d="M14.375 8.20833V29.7917M23.625 8.20833V29.7917" stroke="#3E8BFF" stroke-width="2.3125" stroke-linecap="round"/>
</svg>
