<svg width="145" height="32" viewBox="0 0 145 32" fill="none" xmlns="http://www.w3.org/2000/svg">
<path d="M32.467 1.43354C32.467 0.605407 33.1399 -0.0734298 33.9642 0.00638697C36.5076 0.252669 38.9592 1.12366 41.0967 2.55185C43.6511 4.25863 45.642 6.68455 46.8176 9.52283C47.9933 12.3611 48.3009 15.4843 47.7015 18.4974C47.1022 21.5105 45.6228 24.2782 43.4505 26.4505C41.2782 28.6228 38.5105 30.1022 35.4974 30.7015C32.4843 31.3009 29.3611 30.9933 26.5228 29.8176C23.6846 28.642 21.2586 26.6511 19.5519 24.0967C18.1237 21.9592 17.2527 19.5076 17.0064 16.9642C16.9266 16.1399 17.6054 15.467 18.4335 15.467C19.2617 15.467 19.9237 16.1408 20.0226 16.963C20.2569 18.9122 20.9469 20.7866 22.0454 22.4306C23.4226 24.4918 25.3802 26.0983 27.6705 27.047C29.9608 27.9956 32.4809 28.2439 34.9123 27.7602C37.3437 27.2766 39.577 26.0829 41.3299 24.3299C43.0829 22.577 44.2766 20.3437 44.7602 17.9123C45.2439 15.4809 44.9956 12.9608 44.047 10.6705C43.0983 8.38017 41.4918 6.42262 39.4306 5.04536C37.7866 3.94688 35.9122 3.25689 33.963 3.02258C33.1408 2.92374 32.467 2.26167 32.467 1.43354Z" fill="#6D6D6D"/>
<path d="M15.533 30.5665C15.533 31.3946 14.8601 32.0734 14.0358 31.9936C11.4924 31.7473 9.04076 30.8763 6.90332 29.4482C4.34894 27.7414 2.35804 25.3155 1.18239 22.4772C0.00673157 19.6389 -0.300871 16.5157 0.298471 13.5026C0.897813 10.4895 2.37718 7.72183 4.54951 5.54951C6.72183 3.37719 9.48953 1.89781 12.5026 1.29847C15.5157 0.699128 18.6389 1.00673 21.4772 2.18238C24.3154 3.35804 26.7414 5.34893 28.4481 7.90332C29.8763 10.0408 30.7473 12.4924 30.9936 15.0358C31.0734 15.8601 30.3946 16.533 29.5665 16.533C28.7383 16.533 28.0763 15.8592 27.9774 15.037C27.7431 13.0878 27.0531 11.2134 25.9546 9.56943C24.5774 7.50822 22.6198 5.9017 20.3295 4.95303C18.0392 4.00436 15.5191 3.75614 13.0877 4.23977C10.6563 4.7234 8.42298 5.91715 6.67006 7.67007C4.91715 9.42298 3.7234 11.6563 3.23977 14.0877C2.75614 16.5191 3.00436 19.0392 3.95303 21.3295C4.9017 23.6198 6.50822 25.5774 8.56943 26.9546C10.2134 28.0531 12.0878 28.7431 14.037 28.9774C14.8592 29.0763 15.533 29.7383 15.533 30.5665Z" fill="#6D6D6D"/>
<path d="M36 16.5C36 18.9853 33.9853 21 31.5 21C29.0147 21 27 18.9853 27 16.5C27 14.0147 29.0147 12 31.5 12C33.9853 12 36 14.0147 36 16.5Z" fill="#6D6D6D"/>
<path d="M20 16.5C20 18.9853 17.9853 21 15.5 21C13.0147 21 11 18.9853 11 16.5C11 14.0147 13.0147 12 15.5 12C17.9853 12 20 14.0147 20 16.5Z" fill="#6D6D6D"/>
<path d="M55 2.32086H60.2624C60.9882 2.32086 61.6468 2.43449 62.2383 2.66176C62.8297 2.88904 63.3337 3.20321 63.7504 3.60428C64.1806 4.00535 64.5099 4.48663 64.7384 5.04813C64.9669 5.59626 65.0811 6.19786 65.0811 6.85294C65.0811 7.33422 65.0005 7.78877 64.8392 8.21658C64.6779 8.63102 64.4561 9.01203 64.1738 9.35963C63.8916 9.69385 63.5622 9.99465 63.1859 10.262C62.8095 10.516 62.413 10.7166 61.9963 10.8636L61.9761 11.004L65.8473 16.5187V16.6791H62.7222L58.9921 11.2848H57.7219V16.6791H55V2.32086ZM60.2422 8.79813C60.8605 8.79813 61.3646 8.61096 61.7544 8.23663C62.1576 7.8623 62.3592 7.3877 62.3592 6.81283C62.3592 6.55882 62.3122 6.3115 62.2181 6.07086C62.1374 5.83021 62.0098 5.61631 61.835 5.42914C61.6603 5.24198 61.4385 5.09492 61.1697 4.98797C60.9143 4.86765 60.6186 4.80749 60.2825 4.80749H57.7219V8.79813H60.2422Z" fill="#6D6D6D"/>
<path d="M70.2249 4.8877V8.21658H76.0115V10.7834H70.2249V14.1123H76.6567V16.6791H67.503V2.32086H76.6567V4.8877H70.2249Z" fill="#6D6D6D"/>
<path d="M83.3732 2.32086H86.4782L91.9019 16.6791H88.8977L87.7081 13.25H82.1433L80.9537 16.6791H77.9496L83.3732 2.32086ZM86.821 10.7634L85.5306 7.1738L85.0064 5.42914H84.8451L84.3208 7.1738L83.0304 10.7634H86.821Z" fill="#6D6D6D"/>
<path d="M100.064 4.68717C99.486 4.68717 98.9685 4.8008 98.5115 5.02807C98.0679 5.25535 97.6915 5.58289 97.3824 6.0107C97.0732 6.42513 96.838 6.93315 96.6767 7.53476C96.5288 8.13636 96.4549 8.8115 96.4549 9.56016C96.4549 10.5762 96.5759 11.4452 96.8178 12.1671C97.0732 12.8757 97.4697 13.4171 98.0074 13.7914C98.5451 14.1658 99.2306 14.3529 100.064 14.3529C100.655 14.3529 101.24 14.2861 101.818 14.1524C102.409 14.0187 103.048 13.8315 103.733 13.5909V16.1377C103.102 16.3917 102.477 16.5789 101.858 16.6992C101.24 16.8195 100.548 16.8797 99.7817 16.8797C98.3031 16.8797 97.0799 16.5789 96.1121 15.9773C95.1578 15.3623 94.4521 14.5067 93.9951 13.4104C93.5381 12.3008 93.3096 11.0107 93.3096 9.54011C93.3096 8.45722 93.4574 7.46791 93.7532 6.57219C94.0489 5.6631 94.479 4.88102 95.0435 4.22594C95.6215 3.57086 96.3272 3.06283 97.1606 2.70187C98.0074 2.34091 98.9752 2.16043 100.064 2.16043C100.776 2.16043 101.489 2.25401 102.201 2.44118C102.927 2.61497 103.619 2.85562 104.278 3.1631L103.29 5.62968C102.752 5.37567 102.208 5.15508 101.657 4.96791C101.119 4.78075 100.588 4.68717 100.064 4.68717Z" fill="#6D6D6D"/>
<path d="M109.494 16.6791V4.8877H105.462V2.32086H116.249V4.8877H112.216V16.6791H109.494Z" fill="#6D6D6D"/>
<path d="M124.409 17C123.334 17 122.332 16.8061 121.405 16.4184C120.491 16.0307 119.698 15.5027 119.026 14.8342C118.354 14.1524 117.823 13.357 117.433 12.4479C117.056 11.5254 116.868 10.5428 116.868 9.5C116.868 8.45722 117.056 7.48128 117.433 6.57219C117.823 5.64973 118.354 4.85428 119.026 4.18583C119.698 3.50401 120.491 2.96925 121.405 2.58155C122.332 2.19385 123.334 2 124.409 2C125.484 2 126.479 2.19385 127.393 2.58155C128.32 2.96925 129.12 3.50401 129.792 4.18583C130.464 4.85428 130.989 5.64973 131.365 6.57219C131.755 7.48128 131.95 8.45722 131.95 9.5C131.95 10.5428 131.755 11.5254 131.365 12.4479C130.989 13.357 130.464 14.1524 129.792 14.8342C129.12 15.5027 128.32 16.0307 127.393 16.4184C126.479 16.8061 125.484 17 124.409 17ZM124.409 14.4332C125.081 14.4332 125.706 14.3128 126.284 14.0722C126.875 13.8315 127.386 13.4973 127.816 13.0695C128.26 12.6417 128.603 12.127 128.845 11.5254C129.1 10.9104 129.228 10.2353 129.228 9.5C129.228 8.76471 129.1 8.09626 128.845 7.49465C128.603 6.87968 128.26 6.35829 127.816 5.93048C127.386 5.50267 126.875 5.16845 126.284 4.92781C125.706 4.68717 125.081 4.56685 124.409 4.56685C123.737 4.56685 123.105 4.68717 122.514 4.92781C121.936 5.16845 121.425 5.50267 120.981 5.93048C120.551 6.35829 120.208 6.87968 119.953 7.49465C119.711 8.09626 119.59 8.76471 119.59 9.5C119.59 10.2353 119.711 10.9104 119.953 11.5254C120.208 12.127 120.551 12.6417 120.981 13.0695C121.425 13.4973 121.936 13.8315 122.514 14.0722C123.105 14.3128 123.737 14.4332 124.409 14.4332Z" fill="#6D6D6D"/>
<path d="M134.153 2.32086H139.415C140.141 2.32086 140.8 2.43449 141.391 2.66176C141.982 2.88904 142.486 3.20321 142.903 3.60428C143.333 4.00535 143.663 4.48663 143.891 5.04813C144.12 5.59626 144.234 6.19786 144.234 6.85294C144.234 7.33422 144.153 7.78877 143.992 8.21658C143.831 8.63102 143.609 9.01203 143.327 9.35963C143.044 9.69385 142.715 9.99465 142.339 10.262C141.962 10.516 141.566 10.7166 141.149 10.8636L141.129 11.004L145 16.5187V16.6791H141.875L138.145 11.2848H136.875V16.6791H134.153V2.32086ZM139.395 8.79813C140.013 8.79813 140.517 8.61096 140.907 8.23663C141.31 7.8623 141.512 7.3877 141.512 6.81283C141.512 6.55882 141.465 6.3115 141.371 6.07086C141.29 5.83021 141.162 5.61631 140.988 5.42914C140.813 5.24198 140.591 5.09492 140.322 4.98797C140.067 4.86765 139.771 4.80749 139.435 4.80749H136.875V8.79813H139.395Z" fill="#6D6D6D"/>
<path d="M118.503 24.2636V23.2797H119.487V28.7597C119.487 29.6064 119.201 30.2623 118.629 30.7275C118.049 31.2004 117.363 31.4368 116.569 31.4368C115.929 31.4368 115.376 31.3148 114.911 31.0707C114.445 30.8343 114.094 30.4911 113.858 30.0411L114.728 29.5491C115.04 30.1898 115.662 30.5102 116.592 30.5102C117.187 30.5102 117.653 30.3538 117.988 30.0411C118.331 29.7284 118.503 29.3013 118.503 28.7597V27.9475C118 28.7102 117.283 29.0915 116.352 29.0915C115.528 29.0915 114.838 28.8017 114.281 28.222C113.717 27.6348 113.435 26.9293 113.435 26.1055C113.435 25.2818 113.717 24.5801 114.281 24.0005C114.838 23.4208 115.528 23.131 116.352 23.131C117.29 23.131 118.007 23.5085 118.503 24.2636ZM118.503 26.1055C118.503 25.5335 118.308 25.053 117.919 24.664C117.53 24.275 117.046 24.0805 116.466 24.0805C115.887 24.0805 115.403 24.275 115.014 24.664C114.625 25.053 114.43 25.5335 114.43 26.1055C114.43 26.6852 114.625 27.1695 115.014 27.5585C115.403 27.9475 115.887 28.142 116.466 28.142C117.046 28.142 117.53 27.9475 117.919 27.5585C118.308 27.1695 118.503 26.6852 118.503 26.1055ZM121.99 23.2797V24.2407C122.318 23.5314 122.913 23.1767 123.775 23.1767V24.2178C123.287 24.195 122.867 24.3246 122.516 24.6068C122.166 24.889 121.99 25.3428 121.99 25.9682V29H120.995V23.2797H121.99ZM129.264 28.2792C128.684 28.8589 127.971 29.1487 127.124 29.1487C126.278 29.1487 125.565 28.8589 124.985 28.2792C124.405 27.6996 124.116 26.9865 124.116 26.1399C124.116 25.2932 124.405 24.5801 124.985 24.0005C125.565 23.4208 126.278 23.131 127.124 23.131C127.971 23.131 128.684 23.4208 129.264 24.0005C129.851 24.5877 130.145 25.3009 130.145 26.1399C130.145 26.9788 129.851 27.692 129.264 28.2792ZM127.124 28.1763C127.697 28.1763 128.177 27.9818 128.566 27.5928C128.955 27.2038 129.149 26.7195 129.149 26.1399C129.149 25.5602 128.955 25.0759 128.566 24.6869C128.177 24.2979 127.697 24.1034 127.124 24.1034C126.56 24.1034 126.083 24.2979 125.694 24.6869C125.305 25.0759 125.111 25.5602 125.111 26.1399C125.111 26.7195 125.305 27.2038 125.694 27.5928C126.083 27.9818 126.56 28.1763 127.124 28.1763ZM135.265 26.3115V23.2797H136.261V29H135.265V28.1763C134.869 28.8246 134.251 29.1487 133.412 29.1487C132.741 29.1487 132.203 28.939 131.799 28.5195C131.394 28.0924 131.192 27.5165 131.192 26.792V23.2797H132.188V26.7348C132.188 27.1924 132.314 27.5509 132.565 27.8102C132.817 28.0695 133.164 28.1992 133.606 28.1992C134.117 28.1992 134.522 28.0428 134.819 27.7301C135.116 27.4098 135.265 26.9369 135.265 26.3115ZM140.933 23.131C141.734 23.131 142.417 23.4246 142.981 24.0119C143.546 24.5992 143.828 25.3085 143.828 26.1399C143.828 26.9788 143.546 27.692 142.981 28.2792C142.425 28.8589 141.742 29.1487 140.933 29.1487C139.988 29.1487 139.267 28.7712 138.771 28.0161V31.2881H137.776V23.2797H138.771V24.2636C139.267 23.5085 139.988 23.131 140.933 23.131ZM140.808 28.1877C141.38 28.1877 141.86 27.9932 142.249 27.6042C142.638 27.2 142.833 26.7119 142.833 26.1399C142.833 25.5602 142.638 25.0759 142.249 24.6869C141.86 24.2903 141.38 24.092 140.808 24.092C140.228 24.092 139.744 24.2903 139.355 24.6869C138.966 25.0759 138.771 25.5602 138.771 26.1399C138.771 26.7119 138.966 27.2 139.355 27.6042C139.744 27.9932 140.228 28.1877 140.808 28.1877Z" fill="#6D6D6D"/>
</svg>
