<svg width="184" height="39" viewBox="0 0 184 39" fill="none" xmlns="http://www.w3.org/2000/svg">
<path d="M40.4585 1.80349C40.4585 0.761645 41.3051 -0.0923776 42.3421 0.00803663C45.5418 0.317878 48.6261 1.41363 51.3152 3.21039C54.5288 5.35764 57.0334 8.4096 58.5125 11.9803C59.9915 15.5511 60.3785 19.4802 59.6245 23.2709C58.8705 27.0616 57.0093 30.5435 54.2764 33.2764C51.5435 36.0094 48.0616 37.8705 44.2709 38.6245C40.4802 39.3785 36.5511 38.9915 32.9803 37.5125C29.4096 36.0334 26.3576 33.5288 24.2104 30.3152C22.4136 27.6261 21.3179 24.5418 21.008 21.3421C20.9076 20.3051 21.7616 19.4585 22.8035 19.4585C23.8453 19.4585 24.6783 20.3061 24.8026 21.3405C25.0974 23.7928 25.9654 26.1508 27.3474 28.2191C29.0801 30.8122 31.5428 32.8333 34.4241 34.0268C37.3055 35.2203 40.476 35.5326 43.5348 34.9242C46.5936 34.3157 49.4033 32.8139 51.6086 30.6086C53.8139 28.4033 55.3157 25.5936 55.9242 22.5348C56.5326 19.476 56.2203 16.3055 55.0268 13.4241C53.8333 10.5428 51.8122 8.08007 49.2191 6.3474C47.1508 4.96543 44.7928 4.09738 42.3405 3.8026C41.3061 3.67826 40.4585 2.84532 40.4585 1.80349Z" fill="#171723"/>
<path d="M19.5415 37.1965C19.5415 38.2384 18.6949 39.0924 17.6579 38.992C14.4582 38.6821 11.3739 37.5864 8.68482 35.7896C5.47125 33.6424 2.96657 30.5904 1.48752 27.0197C0.0084717 23.4489 -0.378515 19.5198 0.375498 15.7291C1.12951 11.9385 2.99065 8.4565 5.72358 5.72358C8.4565 2.99065 11.9384 1.12951 15.7291 0.375496C19.5198 -0.378517 23.4489 0.00846905 27.0197 1.48752C30.5904 2.96656 33.6424 5.47124 35.7896 8.68482C37.5864 11.3739 38.6821 14.4582 38.992 17.6579C39.0924 18.6949 38.2384 19.5415 37.1965 19.5415C36.1547 19.5415 35.3217 18.6939 35.1974 17.6595C34.9026 15.2072 34.0346 12.8492 32.6526 10.7809C30.9199 8.18776 28.4572 6.16665 25.5759 4.97316C22.6945 3.77967 19.524 3.4674 16.4652 4.07584C13.4064 4.68428 10.5967 6.18609 8.39137 8.39137C6.18609 10.5967 4.68428 13.4064 4.07584 16.4652C3.46741 19.524 3.77968 22.6945 4.97317 25.5759C6.16666 28.4572 8.18776 30.9199 10.7809 32.6526C12.8492 34.0346 15.2072 34.9026 17.6595 35.1974C18.6939 35.3217 19.5415 36.1547 19.5415 37.1965Z" fill="#171723"/>
<path d="M46 20C46 23.3137 43.3137 26 40 26C36.6863 26 34 23.3137 34 20C34 16.6863 36.6863 14 40 14C43.3137 14 46 16.6863 46 20Z" fill="#171723"/>
<path d="M26 20C26 23.3137 23.3137 26 20 26C16.6863 26 14 23.3137 14 20C14 16.6863 16.6863 14 20 14C23.3137 14 26 16.6863 26 20Z" fill="#171723"/>
<path d="M70 1.40642H76.6656C77.5851 1.40642 78.4193 1.55036 79.1685 1.83824C79.9176 2.12611 80.5561 2.52406 81.0839 3.03209C81.6287 3.54011 82.0458 4.14973 82.3353 4.86096C82.6247 5.55526 82.7694 6.31729 82.7694 7.14706C82.7694 7.75668 82.6673 8.33244 82.463 8.87433C82.2587 9.39929 81.9777 9.88191 81.6202 10.3222C81.2627 10.7455 80.8455 11.1266 80.3688 11.4652C79.8921 11.787 79.3898 12.041 78.862 12.2273L78.8365 12.4051L83.7399 19.3904V19.5936H79.7814L75.0567 12.7607H73.4478V19.5936H70V1.40642ZM76.6401 9.61096C77.4233 9.61096 78.0618 9.37389 78.5555 8.89973C79.0663 8.42558 79.3217 7.82442 79.3217 7.09626C79.3217 6.77451 79.2621 6.46123 79.1429 6.15642C79.0408 5.8516 78.879 5.58066 78.6577 5.34358C78.4363 5.10651 78.1554 4.92023 77.8149 4.78476C77.4914 4.63235 77.1168 4.55615 76.6912 4.55615H73.4478V9.61096H76.6401Z" fill="#171723"/>
<path d="M89.2849 4.65775V8.87433H96.6145V12.1257H89.2849V16.3422H97.4318V19.5936H85.8371V1.40642H97.4318V4.65775H89.2849Z" fill="#171723"/>
<path d="M105.939 1.40642H109.872L116.742 19.5936H112.937L111.43 15.25H104.382L102.875 19.5936H99.0694L105.939 1.40642ZM110.307 12.1003L108.672 7.55348L108.008 5.34358H107.804L107.14 7.55348L105.505 12.1003H110.307Z" fill="#171723"/>
<path d="M127.081 4.40374C126.349 4.40374 125.693 4.54768 125.115 4.83556C124.553 5.12344 124.076 5.53833 123.684 6.08021C123.293 6.60517 122.995 7.24866 122.79 8.01069C122.603 8.77273 122.51 9.6279 122.51 10.5762C122.51 11.8632 122.663 12.9639 122.969 13.8783C123.293 14.7758 123.795 15.4617 124.476 15.9358C125.157 16.41 126.025 16.6471 127.081 16.6471C127.83 16.6471 128.571 16.5624 129.303 16.393C130.052 16.2237 130.861 15.9866 131.729 15.6818V18.9078C130.929 19.2295 130.137 19.4666 129.354 19.619C128.571 19.7714 127.694 19.8476 126.723 19.8476C124.851 19.8476 123.301 19.4666 122.075 18.7045C120.867 17.9256 119.973 16.8418 119.394 15.4532C118.815 14.0477 118.525 12.4135 118.525 10.5508C118.525 9.17914 118.713 7.92602 119.087 6.79144C119.462 5.63993 120.007 4.64929 120.722 3.81952C121.454 2.98975 122.348 2.34626 123.403 1.88904C124.476 1.43182 125.702 1.20321 127.081 1.20321C127.983 1.20321 128.886 1.32175 129.788 1.55882C130.708 1.77897 131.584 2.08378 132.419 2.47326L131.167 5.59759C130.486 5.27585 129.797 4.99643 129.099 4.75936C128.418 4.52228 127.745 4.40374 127.081 4.40374Z" fill="#171723"/>
<path d="M139.026 19.5936V4.65775H133.918V1.40642H147.582V4.65775H142.474V19.5936H139.026Z" fill="#171723"/>
<path d="M157.918 20C156.556 20 155.288 19.7545 154.113 19.2634C152.955 18.7723 151.95 18.1034 151.099 17.2567C150.248 16.393 149.575 15.3855 149.082 14.234C148.605 13.0655 148.366 11.8209 148.366 10.5C148.366 9.17914 148.605 7.94296 149.082 6.79144C149.575 5.62299 150.248 4.61542 151.099 3.76872C151.95 2.90508 152.955 2.22772 154.113 1.73663C155.288 1.24554 156.556 1 157.918 1C159.28 1 160.54 1.24554 161.698 1.73663C162.873 2.22772 163.886 2.90508 164.737 3.76872C165.588 4.61542 166.252 5.62299 166.729 6.79144C167.223 7.94296 167.47 9.17914 167.47 10.5C167.47 11.8209 167.223 13.0655 166.729 14.234C166.252 15.3855 165.588 16.393 164.737 17.2567C163.886 18.1034 162.873 18.7723 161.698 19.2634C160.54 19.7545 159.28 20 157.918 20ZM157.918 16.7487C158.769 16.7487 159.561 16.5963 160.293 16.2914C161.042 15.9866 161.689 15.5633 162.234 15.0214C162.796 14.4795 163.23 13.8275 163.537 13.0655C163.86 12.2865 164.022 11.4314 164.022 10.5C164.022 9.56863 163.86 8.72192 163.537 7.95989C163.23 7.18093 162.796 6.5205 162.234 5.97861C161.689 5.43672 161.042 5.01337 160.293 4.70856C159.561 4.40374 158.769 4.25134 157.918 4.25134C157.067 4.25134 156.267 4.40374 155.517 4.70856C154.785 5.01337 154.138 5.43672 153.576 5.97861C153.032 6.5205 152.597 7.18093 152.274 7.95989C151.967 8.72192 151.814 9.56863 151.814 10.5C151.814 11.4314 151.967 12.2865 152.274 13.0655C152.597 13.8275 153.032 14.4795 153.576 15.0214C154.138 15.5633 154.785 15.9866 155.517 16.2914C156.267 16.5963 157.067 16.7487 157.918 16.7487Z" fill="#171723"/>
<path d="M170.26 1.40642H176.926C177.845 1.40642 178.679 1.55036 179.429 1.83824C180.178 2.12611 180.816 2.52406 181.344 3.03209C181.889 3.54011 182.306 4.14973 182.595 4.86096C182.885 5.55526 183.03 6.31729 183.03 7.14706C183.03 7.75668 182.927 8.33244 182.723 8.87433C182.519 9.39929 182.238 9.88191 181.88 10.3222C181.523 10.7455 181.106 11.1266 180.629 11.4652C180.152 11.787 179.65 12.041 179.122 12.2273L179.097 12.4051L184 19.3904V19.5936H180.041L175.317 12.7607H173.708V19.5936H170.26V1.40642ZM176.9 9.61096C177.683 9.61096 178.322 9.37389 178.816 8.89973C179.326 8.42558 179.582 7.82442 179.582 7.09626C179.582 6.77451 179.522 6.46123 179.403 6.15642C179.301 5.8516 179.139 5.58066 178.918 5.34358C178.696 5.10651 178.416 4.92023 178.075 4.78476C177.751 4.63235 177.377 4.55615 176.951 4.55615H173.708V9.61096H176.9Z" fill="#171723"/>
<path d="M150.996 28.9782V27.7273H152.247V34.6945C152.247 35.7709 151.884 36.6048 151.156 37.1964C150.419 37.7976 149.547 38.0982 148.538 38.0982C147.724 38.0982 147.021 37.943 146.429 37.6327C145.838 37.3321 145.392 36.8958 145.091 36.3236L146.196 35.6982C146.594 36.5127 147.384 36.92 148.567 36.92C149.324 36.92 149.915 36.7212 150.342 36.3236C150.778 35.9261 150.996 35.383 150.996 34.6945V33.6618C150.356 34.6315 149.445 35.1164 148.262 35.1164C147.215 35.1164 146.337 34.7479 145.629 34.0109C144.912 33.2642 144.553 32.3673 144.553 31.32C144.553 30.2727 144.912 29.3806 145.629 28.6436C146.337 27.9067 147.215 27.5382 148.262 27.5382C149.455 27.5382 150.366 28.0182 150.996 28.9782ZM150.996 31.32C150.996 30.5927 150.749 29.9818 150.255 29.4873C149.76 28.9927 149.144 28.7455 148.407 28.7455C147.67 28.7455 147.055 28.9927 146.56 29.4873C146.065 29.9818 145.818 30.5927 145.818 31.32C145.818 32.057 146.065 32.6727 146.56 33.1673C147.055 33.6618 147.67 33.9091 148.407 33.9091C149.144 33.9091 149.76 33.6618 150.255 33.1673C150.749 32.6727 150.996 32.057 150.996 31.32ZM155.43 27.7273V28.9491C155.847 28.0473 156.603 27.5964 157.699 27.5964V28.92C157.078 28.8909 156.545 29.0558 156.099 29.4145C155.653 29.7733 155.43 30.3503 155.43 31.1455V35H154.165V27.7273H155.43ZM164.678 34.0836C163.941 34.8206 163.034 35.1891 161.958 35.1891C160.881 35.1891 159.975 34.8206 159.238 34.0836C158.501 33.3467 158.132 32.44 158.132 31.3636C158.132 30.2873 158.501 29.3806 159.238 28.6436C159.975 27.9067 160.881 27.5382 161.958 27.5382C163.034 27.5382 163.941 27.9067 164.678 28.6436C165.424 29.3903 165.798 30.297 165.798 31.3636C165.798 32.4303 165.424 33.337 164.678 34.0836ZM161.958 33.9527C162.685 33.9527 163.296 33.7055 163.79 33.2109C164.285 32.7164 164.532 32.1006 164.532 31.3636C164.532 30.6267 164.285 30.0109 163.79 29.5164C163.296 29.0218 162.685 28.7745 161.958 28.7745C161.24 28.7745 160.634 29.0218 160.14 29.5164C159.645 30.0109 159.398 30.6267 159.398 31.3636C159.398 32.1006 159.645 32.7164 160.14 33.2109C160.634 33.7055 161.24 33.9527 161.958 33.9527ZM172.308 31.5818V27.7273H173.573V35H172.308V33.9527C171.803 34.777 171.018 35.1891 169.951 35.1891C169.098 35.1891 168.414 34.9224 167.9 34.3891C167.387 33.8461 167.13 33.1139 167.13 32.1927V27.7273H168.395V32.12C168.395 32.7018 168.555 33.1576 168.875 33.4873C169.195 33.817 169.636 33.9818 170.199 33.9818C170.848 33.9818 171.362 33.783 171.74 33.3855C172.119 32.9782 172.308 32.377 172.308 31.5818ZM179.514 27.5382C180.533 27.5382 181.4 27.9115 182.118 28.6582C182.836 29.4048 183.194 30.3067 183.194 31.3636C183.194 32.4303 182.836 33.337 182.118 34.0836C181.41 34.8206 180.542 35.1891 179.514 35.1891C178.312 35.1891 177.396 34.7091 176.765 33.7491V37.9091H175.5V27.7273H176.765V28.9782C177.396 28.0182 178.312 27.5382 179.514 27.5382ZM179.354 33.9673C180.082 33.9673 180.693 33.72 181.187 33.2255C181.682 32.7115 181.929 32.0909 181.929 31.3636C181.929 30.6267 181.682 30.0109 181.187 29.5164C180.693 29.0121 180.082 28.76 179.354 28.76C178.617 28.76 178.002 29.0121 177.507 29.5164C177.013 30.0109 176.765 30.6267 176.765 31.3636C176.765 32.0909 177.013 32.7115 177.507 33.2255C178.002 33.72 178.617 33.9673 179.354 33.9673Z" fill="#171723"/>
</svg>
